<?xml version="1.0" encoding="UTF-8" standalone="no"?>
<svg
   xmlns:dc="http://purl.org/dc/elements/1.1/"
   xmlns:cc="http://creativecommons.org/ns#"
   xmlns:rdf="http://www.w3.org/1999/02/22-rdf-syntax-ns#"
   xmlns:svg="http://www.w3.org/2000/svg"
   xmlns="http://www.w3.org/2000/svg"
   xmlns:sodipodi="http://sodipodi.sourceforge.net/DTD/sodipodi-0.dtd"
   xmlns:inkscape="http://www.inkscape.org/namespaces/inkscape"
   sodipodi:docname="bismillah.svg"
   inkscape:version="1.0 (4035a4fb49, 2020-05-01)"
   id="svg997"
   version="1.1"
   viewBox="0 0 173.36443 29.978067"
   height="29.978067mm"
   width="173.36443mm">
  <defs
     id="defs991" />
  <sodipodi:namedview
     inkscape:window-maximized="1"
     inkscape:window-y="892"
     inkscape:window-x="63"
     inkscape:window-height="715"
     inkscape:window-width="1366"
     showgrid="false"
     inkscape:document-rotation="0"
     inkscape:current-layer="layer1"
     inkscape:document-units="mm"
     inkscape:cy="306.53301"
     inkscape:cx="322.38871"
     inkscape:zoom="0.7"
     inkscape:pageshadow="2"
     inkscape:pageopacity="0.0"
     borderopacity="1.0"
     bordercolor="#666666"
     pagecolor="#ffffff"
     id="base" />
  <metadata
     id="metadata994">
    <rdf:RDF>
      <cc:Work
         rdf:about="">
        <dc:format>image/svg+xml</dc:format>
        <dc:type
           rdf:resource="http://purl.org/dc/dcmitype/StillImage" />
        <dc:title></dc:title>
      </cc:Work>
    </rdf:RDF>
  </metadata>
  <g
     transform="translate(-15.990157,-61.745675)"
     id="layer1"
     inkscape:groupmode="layer"
     inkscape:label="Layer 1">
    <path
       id="path1574"
       d="m 50.48024,91.227049 c 0.751136,-1.13127 5.762617,-3.75791 5.762617,-3.02033 0,0.53675 -3.175275,2.48417 -5.477841,3.3596 -0.663755,0.25236 -0.671489,0.24315 -0.284776,-0.33927 z m -17.388425,-1.29538 c -5.252147,-0.54803 -9.149703,-2.63583 -11.994652,-6.42516 -0.928256,-1.2364 -0.66564,-1.30589 0.816006,-0.21594 5.722025,4.20935 8.780617,4.99472 18.425827,4.73133 7.560098,-0.20646 11.27788,-1.00681 13.422117,-2.88948 1.312867,-1.15271 1.44943,-1.52216 1.06123,-2.87105 -0.368342,-1.27989 -0.299045,-2.08024 0.183142,-2.11518 0.171233,-0.0124 0.906643,-0.006 1.634247,0.0143 1.446599,0.0402 1.77796,-0.14869 2.863003,-1.63245 0.528365,-0.72252 1.135467,-1.13219 2.315353,-1.5624 1.936851,-0.70621 1.667793,-1.02034 -0.878877,-1.02612 -0.982266,-0.002 -1.785938,-0.11648 -1.785938,-0.25388 0,-0.13741 0.284486,-0.58057 0.632191,-0.9848 0.630115,-0.73255 0.63772,-0.73394 2.315104,-0.42242 2.008407,0.373 5.17317,1.22265 5.400371,1.44985 0.415009,0.41501 -0.457875,1.23753 -1.396331,1.31575 -0.904772,0.0754 -1.047221,0.20481 -1.75714,1.59609 -0.881108,1.72678 -1.19751,3.89942 -0.702554,4.82426 0.366977,0.6857 1.317467,1.20368 2.201537,1.19976 0.881642,-0.004 3.236135,-1.18491 3.709427,-1.86063 0.368821,-0.52657 0.373147,-0.68386 0.03671,-1.33447 -0.489509,-0.9466 -0.248275,-1.5525 0.693076,-1.74077 0.410747,-0.0821 0.957945,-0.38266 1.215993,-0.6678 0.450567,-0.49787 0.439319,-0.63572 -0.283538,-3.47536 -0.933604,-3.66751 -1.168339,-4.30289 -1.47488,-3.9922 -0.141476,0.1434 -0.08386,1.04776 0.141811,2.2259 0.209058,1.09141 0.370208,2.34156 0.358114,2.77813 -0.01209,0.43656 -0.251873,-0.33735 -0.532839,-1.7198 -0.54323,-2.67286 -0.565976,-4.2606 -0.0634,-4.42552 1.113105,-0.36525 2.587334,3.84874 2.596943,7.4232 0.0062,2.30485 -0.0053,2.34654 -0.853614,3.10512 -0.537731,0.48084 -0.859896,1.01784 -0.859896,1.43334 0,0.81954 -1.531985,2.57042 -2.758183,3.15229 -1.329802,0.63103 -2.617455,0.54189 -3.553855,-0.24604 -1.551403,-1.30542 -1.685626,-3.26512 -0.433387,-6.32755 0.35392,-0.86554 0.599696,-1.61751 0.546166,-1.67104 -0.161901,-0.1619 -2.119418,0.43226 -2.609115,0.79194 -0.389688,0.28622 -0.411943,0.4569 -0.149868,1.14937 0.365194,0.96494 0.138973,2.10511 -0.463547,2.33632 -0.236789,0.0909 -0.780259,-0.009 -1.207714,-0.22251 -0.706803,-0.3526 -0.853731,-0.34104 -1.622282,0.12757 -0.464799,0.28341 -1.159262,0.51573 -1.543249,0.51628 -0.597852,8.4e-4 -0.724228,0.14353 -0.879605,0.99317 -0.732729,4.00673 -4.953074,6.19095 -13.408149,6.93932 -3.431945,0.30378 -6.307254,0.29742 -9.355754,-0.0207 z m 27.516667,-10.55667 c -0.08994,-0.14552 -0.342114,-0.26458 -0.560396,-0.26458 -0.218281,0 -0.323291,0.11906 -0.233354,0.26458 0.08994,0.14552 0.342114,0.26458 0.560395,0.26458 0.218281,0 0.323292,-0.11906 0.233355,-0.26458 z m -44.317709,8.48086 c 0,-0.41595 1.911244,-2.14739 2.966022,-2.687 1.15809,-0.59246 1.26921,-0.60756 1.261353,-0.17146 -0.0069,0.3839 -4.227375,3.23768 -4.227375,2.85846 z m 167.276457,-0.61449 c 0.13878,-0.44954 3.58019,-2.75903 4.65429,-3.12344 1.94126,-0.65861 1.26705,0.38392 -1.10125,1.70286 -2.28582,1.27301 -3.67951,1.83024 -3.55304,1.42058 z M 77.589152,86.290199 c 1.192369,-1.07905 3.992986,-2.68187 4.686054,-2.68187 0.642207,0 0.512958,0.43167 -0.30162,1.00735 -0.848383,0.59956 -4.985649,2.70191 -5.285793,2.68597 -0.112371,-0.006 0.293241,-0.46112 0.901359,-1.01145 z m -40.629325,-0.68178 c -0.162716,-0.64621 -0.414975,-1.24855 -0.560575,-1.33854 -0.327827,-0.2026 -0.353298,-1.71988 -0.02887,-1.71988 0.313036,0 0.977156,1.70504 1.210916,3.10886 0.251166,1.50837 -0.238969,1.46858 -0.621467,-0.0504 z m 51.44655,0.35753 c 0.872906,-0.91815 4.233532,-2.87791 4.944293,-2.88328 0.677272,-0.005 0.566063,0.41681 -0.264583,1.00384 -0.794788,0.56169 -4.966494,2.69682 -5.269149,2.69682 -0.103216,0 0.162031,-0.36782 0.589439,-0.81738 z m -58.394105,-1.01812 c -0.513531,-0.42143 -0.571054,-0.59789 -0.323425,-0.99219 0.307319,-0.48934 0.679981,-0.54681 1.460835,-0.22527 0.306207,0.12609 0.491592,0.0155 0.612482,-0.3654 0.164289,-0.51763 0.214866,-0.52476 0.966344,-0.13615 0.575624,0.29767 0.770355,0.56905 0.710437,0.9901 -0.08422,0.59182 -0.67495,0.71841 -1.569129,0.33626 -0.299349,-0.12794 -0.471079,-0.0192 -0.570543,0.36111 -0.177454,0.67858 -0.489223,0.68623 -1.287001,0.0315 z m 11.508932,0.004 c -1.307864,-0.79749 -1.248738,-0.99795 0.257514,-0.87304 1.563225,0.12964 3.366847,-0.5506 4.413277,-1.66448 0.561924,-0.59814 0.573354,-0.67834 0.181826,-1.27588 -0.621117,-0.94795 -0.30476,-1.71689 0.790938,-1.92244 1.455055,-0.27297 1.615138,-0.96931 0.925671,-4.02655 -0.602623,-2.67215 -0.756462,-5.1983 -0.332523,-5.46031 0.432393,-0.26723 0.670203,0.46249 0.858565,2.63453 0.592839,6.83606 0.588987,6.50826 0.08742,7.43961 -0.261734,0.48601 -0.696601,0.95371 -0.966373,1.03933 -0.337957,0.10726 -0.490495,0.40949 -0.490495,0.97185 0,0.63372 -0.31632,1.13251 -1.414946,2.23113 -1.227532,1.22754 -1.551694,1.41482 -2.447396,1.41396 -0.567846,-5.3e-4 -1.406412,-0.22902 -1.863477,-0.50772 z m 7.307408,-1.29496 c -0.505478,-0.40931 -0.547766,-0.56657 -0.284585,-1.05833 0.373861,-0.69857 0.592579,-0.71758 1.318231,-0.11456 0.391586,0.3254 0.509082,0.63995 0.395327,1.05833 -0.195932,0.72062 -0.636868,0.75597 -1.428973,0.11456 z m -32.314285,-0.77614 c 0.288295,-0.40018 0.951246,-1.13791 1.473226,-1.6394 0.608423,-0.58454 0.949053,-1.15693 0.949053,-1.59478 0,-0.8218 0.674913,-1.85905 1.209637,-1.85905 0.212233,0 1.009154,0.35131 1.770934,0.78069 3.017317,1.70071 6.378613,2.0061 10.482958,0.95244 l 2.483322,-0.63752 0.758166,0.56054 0.758169,0.56054 2.340591,-1.21256 2.340594,-1.21256 -0.951873,-0.15746 c -0.523531,-0.0866 -1.696013,-0.15876 -2.605518,-0.16036 -1.784332,-0.003 -1.984169,-0.20704 -1.241769,-1.26696 0.560157,-0.79973 2.346055,-0.78379 5.505518,0.0492 1.329339,0.35046 2.745481,0.71019 3.146986,0.79939 0.710782,0.15792 0.718691,0.17946 0.3003,0.818 -0.388819,0.59341 -0.603861,0.65582 -2.259859,0.65582 -2.128568,0 -3.092392,0.34743 -4.696074,1.6928 -1.887445,1.58343 -2.060768,1.62744 -2.894537,0.73489 l -0.727112,-0.77838 -0.914902,0.49121 c -1.404889,0.75428 -4.28199,1.56364 -5.558417,1.56364 -0.630782,0 -2.254685,-0.19787 -3.608672,-0.43972 -1.910657,-0.34127 -2.60983,-0.37227 -3.123029,-0.13844 -0.444108,0.20235 -0.878677,0.21861 -1.323439,0.0495 -0.58304,-0.22167 -0.80375,-0.11023 -1.846169,0.93219 -0.651179,0.65118 -1.433328,1.18396 -1.738108,1.18396 h -0.554146 z m 4.009779,-3.77031 c 0,-0.14552 -0.119062,-0.26459 -0.264583,-0.26459 -0.145521,0 -0.264583,0.11907 -0.264583,0.26459 0,0.14552 0.119062,0.26458 0.264583,0.26458 0.145521,0 0.264583,-0.11906 0.264583,-0.26458 z m 66.821639,3.67808 c 1.93535,-1.21253 3.028362,-2.34653 3.028362,-3.14195 0,-0.87736 0.687285,-1.85905 1.301539,-1.85905 0.262779,0 0.927243,0.35719 1.476586,0.79375 0.549344,0.43656 1.030608,0.79375 1.069481,0.79375 0.03887,0 1.659607,0.17602 3.601638,0.39117 11.931849,1.32182 26.267429,1.83711 45.732009,1.64383 19.64411,-0.19506 31.31463,-0.89865 34.06944,-2.05396 1.29588,-0.54347 1.42696,-0.55399 1.87292,-0.15041 0.72004,0.65163 2.06649,0.54916 2.83112,-0.21548 0.35719,-0.35718 0.6613,-0.80367 0.67581,-0.99218 0.0145,-0.18852 0.10917,-0.0451 0.21036,0.3187 0.32309,1.1615 1.27963,0.82603 1.72378,-0.60454 0.13821,-0.44515 0.18546,-0.44679 0.82368,-0.0286 0.55371,0.3628 0.80052,0.38737 1.3547,0.13487 0.792,-0.36086 0.74331,-0.80716 -0.35703,-3.27204 -0.67643,-1.51531 -0.98549,-1.8194 -1.21005,-1.19062 -0.065,0.1819 -0.17345,0.2712 -0.24107,0.19844 -0.20664,-0.22233 0.32958,-2.38125 0.59143,-2.38125 0.28196,0 1.61519,2.57217 2.08496,4.02245 0.47689,1.47226 0.42405,3.05776 -0.12202,3.66115 -0.55788,0.61646 -1.51509,0.67541 -1.9747,0.12161 -0.47773,-0.57563 -0.60768,-0.49987 -1.14627,0.66828 -0.41512,0.90035 -0.60529,1.05208 -1.32292,1.05549 -0.46095,0.002 -1.31435,0.17078 -1.89644,0.37465 -0.97197,0.34041 -1.12958,0.32686 -1.93148,-0.16605 l -0.87314,-0.5367 -1.34237,0.55786 c -4.28232,1.77965 -36.40907,2.94923 -58.95613,2.1463 -12.03625,-0.42862 -24.113767,-1.2702 -24.554558,-1.71099 -0.05317,-0.0532 -0.423717,0.0173 -0.823433,0.15667 -0.483352,0.1685 -0.979863,0.15712 -1.482469,-0.034 -0.683178,-0.25974 -0.813964,-0.21289 -1.362604,0.48814 -0.659947,0.84326 -2.326579,1.63052 -3.451799,1.63052 -0.638249,0 -0.579147,-0.0807 0.600668,-0.81983 z m 4.880446,-3.4135 c 0,-0.14552 -0.185621,-0.26458 -0.412491,-0.26458 -0.22687,0 -0.338905,0.11906 -0.248968,0.26458 0.08994,0.14552 0.275559,0.26458 0.412491,0.26458 0.136933,0 0.248968,-0.11906 0.248968,-0.26458 z m 95.143149,3.35861 c -0.5057,-0.36977 -0.50525,-1.52661 5.3e-4,-1.69294 0.15987,-0.0526 0.56195,0.1241 0.89351,0.39258 0.44353,0.35915 0.55427,0.64111 0.4191,1.06703 -0.20925,0.65927 -0.62882,0.73381 -1.31326,0.23333 z M 80.501564,81.747779 c -0.476496,-0.37481 -0.887947,-0.48631 -1.358599,-0.36819 -1.117727,0.28053 -1.998025,-0.0714 -1.998025,-0.7987 0,-0.8098 1.076397,-2.09791 2.111309,-2.52659 0.488059,-0.20216 0.799108,-0.52448 0.799108,-0.82807 0,-1.04917 0.469411,-0.43361 0.637897,0.83651 0.33854,2.55204 1.242473,3.381 2.159929,1.98079 0.326271,-0.49796 0.385395,-0.9698 0.247319,-1.97373 -0.0998,-0.72563 -0.09425,-1.71107 0.01233,-2.18987 0.181769,-0.81655 0.229473,-0.73632 0.769051,1.29338 0.596014,2.24198 1.005972,2.99544 1.629828,2.99544 0.523952,0 0.454531,-0.94946 -0.207184,-2.83364 -0.445027,-1.26717 -0.514226,-1.78162 -0.302504,-2.24896 0.264853,-0.58461 0.290383,-0.56868 0.725115,0.45239 1.900658,4.46415 1.1113,7.96736 -1.323362,5.87315 l -0.708173,-0.60915 -0.741436,0.74144 c -0.879774,0.87977 -1.52508,0.9334 -2.452603,0.2038 z m -1.023118,-2.30934 c 0.0465,-0.32593 -0.03429,-0.59261 -0.179538,-0.59261 -0.419605,0 -1.116563,0.81042 -0.941104,1.09432 0.278786,0.45109 1.032872,0.11349 1.120642,-0.50171 z m -4.135564,1.78864 c -0.03032,-0.21828 -0.234344,-2.00421 -0.453398,-3.96875 -0.219051,-1.96453 -0.466781,-3.78882 -0.550508,-4.05399 -0.08373,-0.26516 -0.07263,-0.79926 0.02466,-1.18688 0.13643,-0.54358 0.225896,-0.61486 0.391176,-0.31164 0.365527,0.67059 0.851347,5.84672 0.744646,7.93376 -0.0558,1.09141 -0.126254,1.80579 -0.15657,1.5875 z m -22.602333,-0.79375 c -0.0899,-0.21828 -0.295164,-1.73849 -0.456132,-3.37824 -0.160969,-1.63975 -0.397425,-3.54208 -0.525454,-4.22739 -0.156829,-0.83947 -0.136266,-1.42062 0.06302,-1.78113 0.267358,-0.48364 0.313811,-0.43332 0.482978,0.52322 0.60226,3.40542 0.929412,10.06254 0.435584,8.86354 z m 4.759079,-2.79683 c -0.109141,-0.11098 -0.198882,-0.44982 -0.199427,-0.75299 -5.43e-4,-0.30317 -0.21625,-0.90841 -0.479346,-1.34497 -0.534969,-0.88768 -0.424093,-2.36337 0.126886,-1.68876 0.699201,0.85609 1.226257,4.47242 0.551887,3.78672 z m 33.587997,-2.49483 c -0.116888,-0.94589 -0.389432,-3.06309 -0.605655,-4.70489 -0.373629,-2.83702 -0.338291,-3.67084 0.142968,-3.37341 0.319913,0.19772 0.858033,5.82128 0.760357,7.94601 l -0.08515,1.85208 z m 89.377105,-0.93424 0.79375,-0.69589 -0.99219,0.10048 c -1.11281,0.11269 -1.16477,0.0417 -0.58031,-0.79273 0.33985,-0.4852 0.66376,-0.58804 1.85209,-0.58804 0.79211,0 1.4402,0.0654 1.4402,0.14543 0,0.08 -0.18429,0.50182 -0.40955,0.93741 -0.39347,0.76091 -0.79743,1.01533 -2.23628,1.40849 -0.64353,0.17584 -0.63994,0.16188 0.13229,-0.51515 z m -157.573453,0.0252 c 0.620033,-0.74709 1.419473,-1.04231 9.935954,-3.66913 11.624165,-3.58536 12.654945,-3.88942 12.775775,-3.76859 0.540101,0.5401 -16.976719,6.62257 -22.163292,7.69589 -0.844992,0.17486 -0.890172,0.1536 -0.548437,-0.25817 z m 57.800295,-0.51651 c -0.208873,-0.54431 0.08538,-1.74941 0.427159,-1.74941 0.142748,0 0.259543,0.17859 0.259543,0.39687 0,0.21828 0.178594,0.39688 0.396875,0.39688 0.218281,0 0.396875,-0.2311 0.396875,-0.51355 0,-0.28246 0.119062,-0.58714 0.264583,-0.67708 0.145521,-0.0899 0.264584,0.0816 0.264584,0.38126 0,0.72597 0.41629,0.69461 0.670724,-0.0505 0.182406,-0.5342 0.214714,-0.50358 0.314714,0.29823 0.124999,1.00224 -0.07228,1.30013 -1.004862,1.51735 -0.353118,0.0823 -0.908444,0.21212 -1.234056,0.28861 -0.394099,0.0926 -0.64689,-0.004 -0.756139,-0.28863 z m -15.258664,-0.0559 c -0.235477,-0.23548 -0.254006,-1.22985 -0.03362,-1.80417 0.230425,-0.60048 0.63315,-0.51608 0.63315,0.1327 0,0.72176 0.634498,0.51661 0.746006,-0.24121 0.09493,-0.64516 0.576911,-0.79363 0.576911,-0.17772 0,0.21828 0.119062,0.39688 0.264583,0.39688 0.145521,0 0.264584,-0.17157 0.264584,-0.38126 0,-0.2097 0.119062,-0.45485 0.264583,-0.54478 0.459134,-0.28377 0.290523,1.36605 -0.198438,1.94163 -0.478676,0.56348 -2.175364,1.02033 -2.517761,0.67793 z m -22.617656,-0.28125 c -0.185573,-0.0749 -0.330729,-0.58827 -0.330729,-1.16974 0,-1.09274 0.371388,-1.40362 0.60583,-0.50712 0.209865,0.80253 0.651875,0.63366 0.865693,-0.33073 0.183462,-0.82747 0.200742,-0.83745 0.45833,-0.26458 0.331742,0.73779 0.715981,0.77329 0.715981,0.0662 0,-0.29104 0.119062,-0.52917 0.264583,-0.52917 0.334364,0 0.338082,0.56599 0.0094,1.43051 -0.150895,0.39688 -0.650717,0.83647 -1.222936,1.07556 -0.53226,0.22239 -0.98297,0.39495 -1.001578,0.38346 -0.0186,-0.0115 -0.182663,-0.0809 -0.364564,-0.15434 z m 17.131771,-1.12145 c 0,-0.11077 0.297657,-0.3607 0.661459,-0.55541 0.363802,-0.1947 0.661458,-0.45294 0.661458,-0.57387 0,-0.2705 0.04486,-0.27168 -0.993934,0.0262 -0.752496,0.21581 -0.858149,0.18438 -0.858149,-0.25528 0,-0.27576 0.230298,-0.62464 0.511773,-0.77528 0.642654,-0.34394 2.92781,-0.36092 2.92781,-0.0218 0,0.52786 -0.618643,1.57811 -1.028025,1.74525 -0.986301,0.40267 -1.882392,0.5979 -1.882392,0.41011 z m -36.777084,-1.73209 c 0,-0.0847 0.386954,-0.40122 0.859896,-0.70336 l 0.859896,-0.54936 -1.124479,0.13119 c -1.28513,0.14994 -1.527779,-0.29972 -0.536441,-0.99407 0.801132,-0.56114 2.851545,-0.55942 2.851545,0.002 0,0.67925 -0.522383,1.44857 -1.140566,1.67973 -1.166049,0.43602 -1.769851,0.5839 -1.769851,0.43348 z m 41.669622,-1.07727 c 1.142704,-1.03365 4.793647,-2.96472 5.074396,-2.68397 0.330967,0.33096 -0.800378,1.23714 -2.819537,2.25837 -1.119447,0.56619 -2.322365,1.10851 -2.673149,1.20516 -0.532332,0.14667 -0.463167,0.0178 0.41829,-0.77956 z m 17.06788,0.6177 c 0,-0.17234 -0.252688,-0.83532 -0.561528,-1.4733 -0.419733,-0.86706 -0.497518,-1.30341 -0.308039,-1.72805 l 0.253489,-0.56809 0.419638,0.65233 c 0.519289,0.80723 0.885459,3.43045 0.47885,3.43045 -0.155326,0 -0.28241,-0.14101 -0.28241,-0.31334 z m -25.178976,-0.83235 c 0.778841,-0.80356 4.397365,-2.82306 5.058328,-2.82306 0.418947,0 0.332386,0.39814 -0.186124,0.8561 -0.475038,0.41956 -5.19612,2.84806 -5.536718,2.84806 -0.104217,0 0.194815,-0.39649 0.664514,-0.8811 z m 15.016263,0.28579 c 0.497536,-0.87869 1.324229,-1.52135 1.956994,-1.52135 0.468614,0 0.890656,-0.26076 1.284716,-0.79375 1.068752,-1.44557 2.208427,-0.83728 1.4326,0.76463 -0.60139,1.24174 -1.768134,1.77781 -2.943945,1.35263 -0.793083,-0.28678 -0.961472,-0.27337 -1.233183,0.0982 -0.368155,0.50348 -0.771637,0.58433 -0.497182,0.0996 z m 3.916244,-1.6741 c 0.07944,-0.20703 0.05293,-0.37642 -0.05892,-0.37642 -0.263196,0 -0.838364,0.57517 -0.838364,0.83836 0,0.3294 0.73976,-0.0514 0.897282,-0.46194 z m -26.561865,1.02319 c 0,-0.63322 1.122775,-1.66419 1.812369,-1.66419 0.467982,0 0.962888,-0.28179 1.430144,-0.81428 0.81157,-0.92488 1.608696,-0.9413 1.73776,-0.0358 0.05765,0.40447 -0.213691,0.8989 -0.833438,1.51865 -0.949441,0.94944 -1.676767,1.12667 -2.59874,0.63325 -0.418473,-0.22396 -0.643339,-0.18653 -1.040939,0.17329 -0.278935,0.25244 -0.507156,0.33752 -0.507156,0.18907 z m 3.709474,-1.5383 c 0.184076,-0.22179 0.261062,-0.47688 0.171082,-0.56687 -0.192164,-0.19216 -0.97014,0.39962 -0.97014,0.73796 0,0.36445 0.431231,0.27212 0.799058,-0.17109 z m 34.919693,-2.57922 c 0,-0.56167 1.320165,-1.57309 1.808631,-1.38565 0.236416,0.0907 0.734089,-0.22692 1.266883,-0.8086 0.984507,-1.07483 1.513882,-1.08111 1.639274,-0.0195 0.167997,1.42236 -2.149613,2.81227 -3.385828,2.03054 -0.267394,-0.16909 -0.53898,-0.11308 -0.859896,0.17735 -0.425352,0.38494 -0.469064,0.38548 -0.469064,0.006 z m 3.709474,-1.38953 c 0.184076,-0.22179 0.261062,-0.47688 0.171082,-0.56687 -0.192164,-0.19216 -0.970139,0.39962 -0.970139,0.73796 0,0.36445 0.431231,0.27212 0.799057,-0.17109 z"
       style="fill:#ffffff;stroke-width:0.264583" />
  </g>
</svg>
